<svg width="188" height="32" viewBox="0 0 188 32" fill="none" xmlns="http://www.w3.org/2000/svg">
    <g clip-path="url(#clip0)">
        <path fill-rule="evenodd" clip-rule="evenodd" d="M18.921 0.886773C18.303 -0.101925 16.9738 -0.354591 16.0362 0.338422L5.40561 8.19582C4.96148 8.52409 4.86755 9.15025 5.19583 9.59439C5.5241 10.0385 6.15026 10.1324 6.59439 9.80417L17.225 1.94677L21.652 9.02997C21.9447 9.4983 22.5617 9.64068 23.03 9.34796C23.4983 9.05525 23.6407 8.4383 23.348 7.96997L21.1533 4.45844L23.6643 2.88908L27.5353 9.37807C27.8182 9.85237 28.4321 10.0075 28.9064 9.72455C29.3807 9.4416 29.5358 8.82774 29.2529 8.35344L25.3818 1.86444C24.8076 0.901912 23.5547 0.59906 22.6042 1.19308L20.0933 2.76245L18.921 0.886773Z" fill="#999999"/>
        <path fill-rule="evenodd" clip-rule="evenodd" d="M3 3.9978C1.34315 3.9978 0 5.34095 0 6.9978V11.9978V17.9978V27.9978C0 30.2069 1.79086 31.9978 4 31.9978H28C30.2091 31.9978 32 30.2069 32 27.9978V11.9978C32 9.78866 30.2091 7.9978 28 7.9978H6H4H3C2.44772 7.9978 2 7.55009 2 6.9978C2 6.44552 2.44772 5.9978 3 5.9978H6C6.55228 5.9978 7 5.55009 7 4.9978C7 4.44552 6.55228 3.9978 6 3.9978H3ZM2 27.9978V11.9978C2 10.8932 2.89543 9.9978 4 9.9978H6H28C29.1046 9.9978 30 10.8932 30 11.9978V15.9518H30H25.0774C23.0096 15.9518 21.3333 17.628 21.3333 19.6958C21.3333 21.7636 23.0096 23.4399 25.0774 23.4399H30H30V27.9978C30 29.1024 29.1046 29.9978 28 29.9978H4C2.89543 29.9978 2 29.1024 2 27.9978ZM25.0774 17.9518H30V21.4399H25.0774C24.1142 21.4399 23.3333 20.6591 23.3333 19.6958C23.3333 18.7326 24.1142 17.9518 25.0774 17.9518Z" fill="#999999"/>
        <path d="M53.0363 13.5455C53.5235 6.86223 58.8622 1.52351 65.5455 1.03631V13.5455H53.0363Z" stroke="#999999" stroke-width="2"/>
        <path d="M53.0363 18.4545C53.5235 25.1378 58.8622 30.4765 65.5455 30.9637V18.4545H53.0363Z" stroke="#999999" stroke-width="2"/>
        <path d="M82.9637 18.4545C82.4765 25.1378 77.1378 30.4765 70.4545 30.9637V18.4545H82.9637Z" stroke="#999999" stroke-width="2"/>
        <path d="M69.4545 1C69.4545 0.447715 69.9037 -0.00357165 70.4547 0.033849C77.6909 0.525275 83.4747 6.30906 83.9662 13.5453C84.0036 14.0963 83.5523 14.5455 83 14.5455H70.4545C69.9023 14.5455 69.4545 14.0977 69.4545 13.5455V1Z" fill="#999999"/>
        <g clip-path="url(#clip1)">
            <path d="M106.409 15.5762L128.686 2.83519L130.641 6.25396L117 14L111.5 15L111 17.5L108.365 18.995L106.409 15.5762Z" fill="#999999"/>
            <rect x="111" y="14" width="24" height="17" rx="3" stroke="#999999" stroke-width="2"/>
            <path d="M111.099 25.497L105.542 15.5881C104.448 13.6377 105.166 11.1692 107.135 10.1093L123.244 1.43867C125.167 0.403648 127.564 1.10214 128.63 3.00794L133.62 11.9267C134.117 12.8147 133.847 13.9355 133 14.5V14.5" stroke="#999999" stroke-width="2"/>
            <mask id="path-10-inside-1" fill="white">
                <path fill-rule="evenodd" clip-rule="evenodd" d="M129.656 27.8553C129.237 27.7056 128.757 27.7056 128.338 27.8553C128.075 27.949 127.793 28 127.498 28C126.118 28 125 26.8807 125 25.5C125 24.1193 126.118 23 127.498 23C127.793 23 128.075 23.051 128.338 23.1447C128.757 23.2944 129.237 23.2944 129.656 23.1447C129.919 23.051 130.201 23 130.496 23C131.875 23 132.994 24.1193 132.994 25.5C132.994 26.8807 131.875 28 130.496 28C130.201 28 129.919 27.949 129.656 27.8553Z"/>
            </mask>
            <path d="M128.338 27.8553L127.665 25.9718L128.338 27.8553ZM129.656 27.8553L130.329 25.9718L129.656 27.8553ZM127.665 25.9718C127.616 25.9895 127.56 26 127.498 26V30C128.025 30 128.535 29.9085 129.01 29.7389L127.665 25.9718ZM127.498 26C127.224 26 127 25.7776 127 25.5H123C123 27.9838 125.012 30 127.498 30V26ZM127 25.5C127 25.2224 127.224 25 127.498 25V21C125.012 21 123 23.0162 123 25.5H127ZM127.498 25C127.56 25 127.616 25.0105 127.665 25.0282L129.01 21.2611C128.535 21.0915 128.025 21 127.498 21V25ZM130.329 25.0282C130.378 25.0105 130.434 25 130.496 25V21C129.969 21 129.459 21.0915 128.984 21.2611L130.329 25.0282ZM130.496 25C130.769 25 130.994 25.2224 130.994 25.5H134.994C134.994 23.0162 132.981 21 130.496 21V25ZM130.994 25.5C130.994 25.7776 130.769 26 130.496 26V30C132.981 30 134.994 27.9838 134.994 25.5H130.994ZM130.496 26C130.434 26 130.378 25.9895 130.329 25.9718L128.984 29.7389C129.459 29.9085 129.969 30 130.496 30V26ZM127.665 25.0282C128.519 25.3332 129.475 25.3332 130.329 25.0282L128.984 21.2611C128.992 21.258 128.997 21.2571 128.998 21.257C128.999 21.2568 128.999 21.257 128.997 21.257C128.995 21.257 128.994 21.2568 128.996 21.257C128.997 21.2571 129.001 21.258 129.01 21.2611L127.665 25.0282ZM129.01 29.7389C129.001 29.742 128.997 29.7429 128.996 29.743C128.994 29.7432 128.995 29.743 128.997 29.743C128.999 29.743 128.999 29.7432 128.998 29.743C128.997 29.7429 128.992 29.742 128.984 29.7389L130.329 25.9718C129.475 25.6668 128.519 25.6668 127.665 25.9718L129.01 29.7389Z" fill="#999999" mask="url(#path-10-inside-1)"/>
            <line x1="115" y1="24" x2="120.385" y2="24" stroke="#999999" stroke-width="2" stroke-linecap="round"/>
            <line x1="115" y1="27" x2="122.846" y2="27" stroke="#999999" stroke-width="2" stroke-linecap="round"/>
        </g>
        <g clip-path="url(#clip2)">
            <path d="M160 2.60596V29.6068C160 30.4947 161.071 30.9423 161.703 30.3183L163.605 28.4399C163.949 28.0996 164.488 28.0551 164.884 28.3342L167.777 30.3752C168.145 30.6348 168.641 30.6164 168.989 30.3302L171.365 28.3749C171.734 28.071 172.266 28.071 172.635 28.3749L174.965 30.2918C175.334 30.5956 175.866 30.5956 176.235 30.2918L178.549 28.3878C178.925 28.0782 179.47 28.0848 179.838 28.4033L182.346 30.5707C182.994 31.1306 184 30.6704 184 29.8141V2.60596C184 1.68947 182.87 1.25578 182.257 1.937L180.009 4.43483C179.589 4.9012 178.848 4.87032 178.469 4.37064L176.396 1.64135C175.996 1.11438 175.204 1.11438 174.804 1.64135L172.796 4.28457C172.396 4.81155 171.604 4.81155 171.204 4.28457L169.196 1.64135C168.796 1.11438 168.004 1.11438 167.604 1.64135L165.531 4.37064C165.152 4.87032 164.411 4.9012 163.991 4.43483L161.743 1.93699C161.13 1.25578 160 1.68947 160 2.60596Z" stroke="#999999" stroke-width="2"/>
            <line x1="164.727" y1="11.6818" x2="173.364" y2="11.6818" stroke="#999999" stroke-width="2" stroke-linecap="round"/>
            <line x1="164.727" y1="16.2273" x2="178.091" y2="16.2273" stroke="#999999" stroke-width="2" stroke-linecap="round"/>
            <line x1="164.727" y1="20.7727" x2="178.091" y2="20.7727" stroke="#999999" stroke-width="2" stroke-linecap="round"/>
        </g>
    </g>
    <defs>
        <clipPath id="clip0">
            <rect width="188" height="32" fill="white"/>
        </clipPath>
        <clipPath id="clip1">
            <rect width="32" height="32" fill="white" transform="translate(104)"/>
        </clipPath>
        <clipPath id="clip2">
            <rect width="32" height="32" fill="white" transform="translate(156)"/>
        </clipPath>
    </defs>
</svg>
