<svg width="30" height="30" viewBox="0 0 30 30" fill="none" xmlns="http://www.w3.org/2000/svg">
<path d="M29.8373 15.036L26.3998 9.30687C26.1935 8.96083 25.82 8.74999 25.4167 8.74999H17.3958C16.7633 8.74999 16.25 9.26333 16.25 9.89583V21.3542C16.25 21.9867 16.7633 22.5 17.3958 22.5H28.8542C29.4867 22.5 30 21.9867 30 21.3542V15.625C30 15.4165 29.945 15.2125 29.8373 15.036Z" fill="#F44336"/>
<path d="M21.3184 11.1876H25.2679L28.0283 15.8042H21.3184V11.1876Z" fill="#FAFAFA"/>
<path d="M17.5781 3.75H1.17188C0.525 3.75 0 4.275 0 4.92188V21.3281C0 21.975 0.525 22.5 1.17188 22.5H18.75V4.92188C18.75 4.275 18.225 3.75 17.5781 3.75Z" fill="#FFFF00"/>
<path d="M8.0275 16.1292H5.67164V9.73046C5.67164 9.55397 5.67418 9.33715 5.67926 9.07999C5.68435 8.81779 5.69197 8.55055 5.70214 8.27826C5.7123 8.00093 5.72247 7.75134 5.73263 7.52947C5.67672 7.59503 5.56236 7.70848 5.38955 7.86983C5.22182 8.02615 5.06425 8.16733 4.91685 8.29339L3.636 9.31446L2.5 7.90765L6.09097 5.07133H8.0275V16.1292Z" fill="black"/>
<path d="M12.4038 16.2357C11.8241 16.2357 11.3411 16.1505 10.9546 15.9801C10.5682 15.8026 10.2783 15.5541 10.0851 15.2346C9.89186 14.9081 9.79525 14.5211 9.79525 14.0738C9.79525 13.9745 9.79883 13.8786 9.80598 13.7863C9.8203 13.6869 9.84177 13.5911 9.87039 13.4988H9.34439V12.7107H10.2783C10.3427 12.6326 10.4143 12.5616 10.493 12.4977C10.5717 12.4267 10.654 12.3593 10.7399 12.2954C10.8329 12.2315 10.9296 12.1711 11.0297 12.1144C11.1299 12.0505 11.2337 11.9937 11.3411 11.944H9.34439V11.1559H12.9298C13.0228 11.0707 13.0908 10.9749 13.1338 10.8684C13.1839 10.7548 13.2089 10.627 13.2089 10.485C13.2089 10.3288 13.1695 10.1975 13.0908 10.091C13.0193 9.98447 12.9119 9.90282 12.7688 9.84603C12.6257 9.78923 12.4467 9.76083 12.232 9.76083C12.0388 9.76083 11.8456 9.77858 11.6524 9.81408C11.4663 9.84958 11.2695 9.89927 11.062 9.96317C10.8544 10.0271 10.6326 10.1087 10.3964 10.2081L9.91333 8.95147C10.2855 8.78818 10.6719 8.66039 11.0727 8.5681C11.4806 8.4687 11.91 8.419 12.3609 8.419C12.8618 8.419 13.2912 8.50065 13.649 8.66394C14.014 8.82013 14.2967 9.05442 14.4971 9.3668C14.6975 9.67919 14.7977 10.0626 14.7977 10.5169C14.7977 10.6305 14.7905 10.7406 14.7762 10.8471C14.7619 10.9536 14.7404 11.0565 14.7118 11.1559H15.2593V11.944H14.2609C14.1822 12.0292 14.0927 12.1108 13.9925 12.1889C13.8995 12.2599 13.7993 12.3273 13.692 12.3912C13.5918 12.448 13.4844 12.5048 13.3699 12.5616C13.2626 12.6113 13.1517 12.661 13.0372 12.7107H15.2593V13.4988H11.588C11.5164 13.5769 11.4627 13.6656 11.4269 13.765C11.3983 13.8573 11.384 13.9603 11.384 14.0738C11.384 14.2442 11.4234 14.3933 11.5021 14.5211C11.588 14.6418 11.7132 14.7377 11.8778 14.8087C12.0496 14.8726 12.2571 14.9045 12.5004 14.9045C12.8869 14.9045 13.2662 14.8619 13.6383 14.7767C14.0104 14.6844 14.3826 14.5637 14.7547 14.4146V15.7565C14.447 15.9055 14.0927 16.0227 13.692 16.1079C13.2912 16.1931 12.8618 16.2357 12.4038 16.2357Z" fill="black"/>
<path d="M24.771 23.8834C26.0414 23.8834 27.0713 22.85 27.0713 21.5751C27.0713 20.3003 26.0414 19.2668 24.771 19.2668C23.5006 19.2668 22.4707 20.3003 22.4707 21.5751C22.4707 22.85 23.5006 23.8834 24.771 23.8834Z" fill="#FAFAFA"/>
<path d="M24.7688 25.0372C22.8665 25.0372 21.3184 23.4837 21.3184 21.5748C21.3184 19.6658 22.8665 18.1123 24.7688 18.1123C26.6711 18.1123 28.2192 19.6658 28.2192 21.5748C28.2192 23.4837 26.6711 25.0372 24.7688 25.0372ZM24.7688 20.4206C24.1362 20.4206 23.6186 20.94 23.6186 21.5748C23.6186 22.2096 24.1362 22.7289 24.7688 22.7289C25.4014 22.7289 25.9189 22.2096 25.9189 21.5748C25.9189 20.94 25.4014 20.4206 24.7688 20.4206Z" fill="#323232"/>
<path d="M18.75 22.5H1.17188C0.525 22.5 0 21.94 0 21.25V17.5H18.75V22.5Z" fill="#F44336"/>
<path d="M8.66747 23.8834C9.93788 23.8834 10.9678 22.85 10.9678 21.5751C10.9678 20.3003 9.93788 19.2668 8.66747 19.2668C7.39706 19.2668 6.36719 20.3003 6.36719 21.5751C6.36719 22.85 7.39706 23.8834 8.66747 23.8834Z" fill="#FAFAFA"/>
<path d="M8.66722 25.0372C6.76489 25.0372 5.2168 23.4837 5.2168 21.5748C5.2168 19.6658 6.76489 18.1123 8.66722 18.1123C10.5696 18.1123 12.1176 19.6658 12.1176 21.5748C12.1176 23.4837 10.5696 25.0372 8.66722 25.0372ZM8.66722 20.4206C8.03234 20.4206 7.51708 20.94 7.51708 21.5748C7.51708 22.2096 8.03234 22.7289 8.66722 22.7289C9.3021 22.7289 9.81736 22.2096 9.81736 21.5748C9.81736 20.94 9.3021 20.4206 8.66722 20.4206Z" fill="#323232"/>
</svg>
