<?xml version="1.0" encoding="UTF-8" standalone="no"?> <svg width="512" height="512" viewBox="0 0 512 512" fill="none" xmlns="http://www.w3.org/2000/svg">
<path d="M496 64H128C125.878 64 123.843 64.8429 122.343 66.3431C120.843 67.8434 120 69.8783 120 72V204.46L92.69 232H16C13.8783 232 11.8434 232.843 10.3431 234.343C8.84285 235.843 8 237.878 8 240V376C8 378.122 8.84285 380.157 10.3431 381.657C11.8434 383.157 13.8783 384 16 384H92.69L106.34 397.66C107.842 399.159 109.878 400.001 112 400H120V440C120 442.122 120.843 444.157 122.343 445.657C123.843 447.157 125.878 448 128 448H496C498.122 448 500.157 447.157 501.657 445.657C503.157 444.157 504 442.122 504 440V72C504 69.8783 503.157 67.8434 501.657 66.3431C500.157 64.8429 498.122 64 496 64ZM264 80H360V218.21L315.97 193.05C314.76 192.362 313.392 192 312 192C310.608 192 309.24 192.362 308.03 193.05L264 218.21V80ZM24 248H96C98.1222 248.001 100.158 247.159 101.66 245.66L120 227.27V244.46L92.69 272H24V248ZM115.31 384L101.66 370.34C100.158 368.841 98.1222 367.999 96 368H24V288H96C98.1222 288.001 100.158 287.159 101.66 285.66L155 231.69C156.5 230.191 158.534 229.349 160.655 229.349C162.776 229.349 164.81 230.191 166.31 231.69C167.054 232.431 167.645 233.311 168.048 234.28C168.451 235.249 168.659 236.288 168.66 237.338C168.661 238.388 168.455 239.427 168.053 240.397C167.652 241.367 167.063 242.248 166.32 242.99C166.27 243.05 166.22 243.1 166.17 243.15L151.62 258.49C150.542 259.624 149.821 261.05 149.545 262.59C149.269 264.131 149.452 265.718 150.069 267.156C150.686 268.594 151.712 269.819 153.018 270.68C154.325 271.541 155.855 272 157.42 272H248C250.122 272 252.157 272.843 253.657 274.343C255.157 275.843 256 277.878 256 280C256 282.122 255.157 284.157 253.657 285.657C252.157 287.157 250.122 288 248 288H184C181.878 288 179.843 288.843 178.343 290.343C176.843 291.843 176 293.878 176 296C176 298.122 176.843 300.157 178.343 301.657C179.843 303.157 181.878 304 184 304H280C282.122 304 284.157 304.843 285.657 306.343C287.157 307.843 288 309.878 288 312C288 314.122 287.157 316.157 285.657 317.657C284.157 319.157 282.122 320 280 320H184C181.878 320 179.843 320.843 178.343 322.343C176.843 323.843 176 325.878 176 328C176 330.122 176.843 332.157 178.343 333.657C179.843 335.157 181.878 336 184 336H248C250.122 336 252.157 336.843 253.657 338.343C255.157 339.843 256 341.878 256 344C256 346.122 255.157 348.157 253.657 349.657C252.157 351.157 250.122 352 248 352H184C181.878 352 179.843 352.843 178.343 354.343C176.843 355.843 176 357.878 176 360C176 362.122 176.843 364.157 178.343 365.657C179.843 367.157 181.878 368 184 368H232C234.122 368 236.157 368.843 237.657 370.343C239.157 371.843 240 373.878 240 376C240 378.122 239.157 380.157 237.657 381.657C236.157 383.157 234.122 384 232 384H115.31ZM488 432H136V400H232C235.916 400.001 239.772 399.044 243.233 397.212C246.693 395.379 249.653 392.728 251.853 389.489C254.054 386.25 255.428 382.522 255.856 378.63C256.284 374.738 255.754 370.8 254.31 367.16C257.494 366.291 260.466 364.775 263.038 362.706C265.61 360.637 267.728 358.06 269.259 355.136C270.791 352.212 271.703 349.003 271.939 345.711C272.175 342.418 271.729 339.113 270.63 336H280C286.365 336 292.47 333.471 296.971 328.971C301.471 324.47 304 318.365 304 312C304 305.635 301.471 299.53 296.971 295.029C292.47 290.529 286.365 288 280 288H270.63C271.908 284.38 272.3 280.506 271.772 276.703C271.244 272.9 269.811 269.28 267.594 266.145C265.377 263.01 262.441 260.453 259.032 258.688C255.622 256.923 251.839 256.001 248 256H176.03L177.7 254.24C182.17 249.733 184.672 243.638 184.659 237.291C184.646 230.943 182.118 224.859 177.63 220.37C173.115 215.872 166.998 213.351 160.625 213.36C154.251 213.37 148.142 215.909 143.64 220.42L136 228.19V80H248V232C247.999 233.402 248.367 234.779 249.066 235.994C249.765 237.209 250.771 238.219 251.983 238.923C253.195 239.627 254.571 240 255.973 240.005C257.375 240.009 258.753 239.646 259.97 238.95L312 209.21L364.03 238.95C365.247 239.646 366.625 240.009 368.027 240.005C369.429 240 370.805 239.627 372.017 238.923C373.229 238.219 374.235 237.209 374.934 235.994C375.633 234.779 376.001 233.402 376 232V80H488V432Z" fill="black"/>
<path d="M360 344C357.878 344 355.843 344.843 354.343 346.343C352.843 347.843 352 349.878 352 352V408C352 410.122 352.843 412.157 354.343 413.657C355.843 415.157 357.878 416 360 416H464C466.122 416 468.157 415.157 469.657 413.657C471.157 412.157 472 410.122 472 408V352C472 349.878 471.157 347.843 469.657 346.343C468.157 344.843 466.122 344 464 344H360ZM456 400H368V360H456V400Z" fill="black"/>
</svg>
