<svg width="30" height="30" viewBox="0 0 30 30" fill="none" xmlns="http://www.w3.org/2000/svg">
<g clip-path="url(#clip0_5193_4438)">
<path d="M7.9125 12H6.4L4.12266 8.81602V12H2.79063V5.71797H4.12266V8.76016L6.37422 5.71797H7.79219L5.50195 8.73437L7.9125 12ZM10.3098 5.71797C11.1204 5.71797 11.712 5.89271 12.0844 6.24219C12.4568 6.5888 12.643 7.06719 12.643 7.67734C12.643 7.95234 12.6014 8.21589 12.5184 8.46797C12.4353 8.71719 12.2992 8.93919 12.1102 9.13398C11.924 9.32878 11.6747 9.48346 11.3625 9.59805C11.0503 9.70977 10.665 9.76562 10.2066 9.76562H9.63516V12H8.30312V5.71797H10.3098ZM10.241 6.80937H9.63516V8.67422H10.0734C10.3227 8.67422 10.5389 8.64128 10.7223 8.57539C10.9056 8.50951 11.0474 8.40638 11.1477 8.26602C11.2479 8.12565 11.298 7.94518 11.298 7.72461C11.298 7.41523 11.2121 7.18607 11.0402 7.03711C10.8684 6.88529 10.602 6.80937 10.241 6.80937ZM17.0469 12H13.4289V5.71797H17.0469V6.80937H14.7609V8.18867H16.8879V9.28008H14.7609V10.9H17.0469V12ZM7.71055 13.718V18.8914H8.54844V21.8305H7.26367V20H3.32773V21.8305H2.04297V18.8914H2.52852C2.6918 18.5648 2.84935 18.2197 3.00117 17.8559C3.15299 17.4921 3.29479 17.101 3.42656 16.6828C3.55833 16.2646 3.67721 15.8105 3.7832 15.3207C3.88919 14.8309 3.97799 14.2966 4.04961 13.718H7.71055ZM6.38281 14.8266H5.10664C5.06367 15.1302 5.00495 15.4539 4.93047 15.7977C4.85599 16.1414 4.76719 16.4923 4.66406 16.8504C4.5638 17.2056 4.45065 17.5565 4.32461 17.9031C4.20143 18.2497 4.06966 18.5792 3.9293 18.8914H6.38281V14.8266ZM9.11953 13.718H10.3184V16.7516C10.3184 16.9005 10.3155 17.0652 10.3098 17.2457C10.3069 17.4262 10.3012 17.6038 10.2926 17.7785C10.2868 17.9504 10.2811 18.1008 10.2754 18.2297C10.2697 18.3586 10.2639 18.4445 10.2582 18.4875H10.284L13.1844 13.718H14.7785V20H13.5926V16.9836C13.5926 16.8232 13.5954 16.6484 13.6012 16.4594C13.6069 16.2703 13.6141 16.087 13.6227 15.9094C13.6341 15.7318 13.6441 15.5785 13.6527 15.4496C13.6613 15.3178 13.6671 15.2305 13.6699 15.1875H13.6355L10.7223 20H9.11953V13.718ZM18.3875 20H17.0555V14.8266H15.3496V13.718H20.0934V14.8266H18.3875V20Z" fill="black"/>
<g filter="url(#filter0_d_5193_4438)">
<circle cx="22.5" cy="21.5" r="6.5" fill="white"/>
</g>
<path d="M21.0674 25H19.7095V21.2822C19.7095 21.1797 19.7109 21.0537 19.7139 20.9043C19.7168 20.752 19.7212 20.5967 19.7271 20.4385C19.7329 20.2773 19.7388 20.1323 19.7446 20.0034C19.7124 20.0415 19.6465 20.1074 19.5469 20.2012C19.4502 20.292 19.3594 20.374 19.2744 20.4473L18.5361 21.0405L17.8813 20.2231L19.9512 18.5752H21.0674V25ZM24.6982 20.8955C25.0908 20.8955 25.4395 20.9702 25.7441 21.1196C26.0518 21.269 26.2935 21.4888 26.4692 21.7788C26.645 22.0688 26.7329 22.4263 26.7329 22.8511C26.7329 23.314 26.6362 23.7139 26.4429 24.0508C26.2524 24.3848 25.9668 24.6411 25.5859 24.8198C25.208 24.9985 24.7363 25.0879 24.1709 25.0879C23.834 25.0879 23.5161 25.0586 23.2173 25C22.9214 24.9443 22.6621 24.8579 22.4395 24.7407V23.5674C22.6621 23.6846 22.9287 23.7842 23.2393 23.8662C23.5527 23.9453 23.8472 23.9849 24.1226 23.9849C24.3921 23.9849 24.6191 23.9497 24.8037 23.8794C24.9883 23.8062 25.1274 23.6948 25.2212 23.5454C25.3179 23.3931 25.3662 23.1997 25.3662 22.9653C25.3662 22.6519 25.2607 22.4116 25.0498 22.2446C24.8389 22.0776 24.5151 21.9941 24.0786 21.9941C23.9116 21.9941 23.7373 22.0103 23.5557 22.0425C23.377 22.0747 23.2275 22.1069 23.1074 22.1392L22.5669 21.8491L22.8086 18.5752H26.2935V19.7266H23.9995L23.8809 20.9878C23.9805 20.9673 24.0889 20.9468 24.2061 20.9263C24.3232 20.9058 24.4873 20.8955 24.6982 20.8955Z" fill="black"/>
</g>
<defs>
<filter id="filter0_d_5193_4438" x="14" y="13" width="17" height="17" filterUnits="userSpaceOnUse" color-interpolation-filters="sRGB">
<feFlood flood-opacity="0" result="BackgroundImageFix"/>
<feColorMatrix in="SourceAlpha" type="matrix" values="0 0 0 0 0 0 0 0 0 0 0 0 0 0 0 0 0 0 127 0" result="hardAlpha"/>
<feOffset/>
<feGaussianBlur stdDeviation="1"/>
<feComposite in2="hardAlpha" operator="out"/>
<feColorMatrix type="matrix" values="0 0 0 0 0 0 0 0 0 0 0 0 0 0 0 0 0 0 0.5 0"/>
<feBlend mode="normal" in2="BackgroundImageFix" result="effect1_dropShadow_5193_4438"/>
<feBlend mode="normal" in="SourceGraphic" in2="effect1_dropShadow_5193_4438" result="shape"/>
</filter>
<clipPath id="clip0_5193_4438">
<rect width="30" height="30" fill="white"/>
</clipPath>
</defs>
</svg>
