<svg width="30" height="30" viewBox="0 0 30 30" fill="none" xmlns="http://www.w3.org/2000/svg">
<g clip-path="url(#clip0_5193_4443)">
<path d="M8.3602 3.93706C10.5732 2.39906 13.3516 1.72226 16.01 2.1048C18.8755 2.4893 21.5591 4.08027 23.29 6.42455C25.1681 8.92969 25.9522 12.2588 25.3423 15.3505C24.8467 18.0832 23.3132 20.6158 21.1021 22.2656C19.0091 23.8644 16.3372 24.6668 13.7234 24.4431C10.2054 24.2293 6.91388 22.1165 5.10938 19.066C8.23629 17.2121 11.3632 15.3524 14.5075 13.53C12.5075 10.3029 10.4048 7.13666 8.3602 3.93706Z" fill="#FFCF00"/>
<path d="M0.547383 8.9587C1.30752 6.54152 2.91745 4.44056 4.98152 3.02148C7.08847 6.22726 9.10965 9.48838 11.24 12.6764C8.01427 14.5619 4.78856 16.4474 1.57259 18.3487C-0.0763197 15.56 -0.446643 12.0459 0.547383 8.9587Z" fill="#00B000"/>
<g filter="url(#filter0_d_5193_4443)">
<circle cx="22.5" cy="21.5" r="6.5" fill="white"/>
</g>
<path d="M21.0674 25H19.7095V21.2822C19.7095 21.1797 19.7109 21.0537 19.7139 20.9043C19.7168 20.752 19.7212 20.5967 19.7271 20.4385C19.7329 20.2773 19.7388 20.1323 19.7446 20.0034C19.7124 20.0415 19.6465 20.1074 19.5469 20.2012C19.4502 20.292 19.3594 20.374 19.2744 20.4473L18.5361 21.0405L17.8813 20.2231L19.9512 18.5752H21.0674V25ZM24.6982 20.8955C25.0908 20.8955 25.4395 20.9702 25.7441 21.1196C26.0518 21.269 26.2935 21.4888 26.4692 21.7788C26.645 22.0688 26.7329 22.4263 26.7329 22.8511C26.7329 23.314 26.6362 23.7139 26.4429 24.0508C26.2524 24.3848 25.9668 24.6411 25.5859 24.8198C25.208 24.9985 24.7363 25.0879 24.1709 25.0879C23.834 25.0879 23.5161 25.0586 23.2173 25C22.9214 24.9443 22.6621 24.8579 22.4395 24.7407V23.5674C22.6621 23.6846 22.9287 23.7842 23.2393 23.8662C23.5527 23.9453 23.8472 23.9849 24.1226 23.9849C24.3921 23.9849 24.6191 23.9497 24.8037 23.8794C24.9883 23.8062 25.1274 23.6948 25.2212 23.5454C25.3179 23.3931 25.3662 23.1997 25.3662 22.9653C25.3662 22.6519 25.2607 22.4116 25.0498 22.2446C24.8389 22.0776 24.5151 21.9941 24.0786 21.9941C23.9116 21.9941 23.7373 22.0103 23.5557 22.0425C23.377 22.0747 23.2275 22.1069 23.1074 22.1392L22.5669 21.8491L22.8086 18.5752H26.2935V19.7266H23.9995L23.8809 20.9878C23.9805 20.9673 24.0889 20.9468 24.2061 20.9263C24.3232 20.9058 24.4873 20.8955 24.6982 20.8955Z" fill="black"/>
</g>
<defs>
<filter id="filter0_d_5193_4443" x="14" y="13" width="17" height="17" filterUnits="userSpaceOnUse" color-interpolation-filters="sRGB">
<feFlood flood-opacity="0" result="BackgroundImageFix"/>
<feColorMatrix in="SourceAlpha" type="matrix" values="0 0 0 0 0 0 0 0 0 0 0 0 0 0 0 0 0 0 127 0" result="hardAlpha"/>
<feOffset/>
<feGaussianBlur stdDeviation="1"/>
<feComposite in2="hardAlpha" operator="out"/>
<feColorMatrix type="matrix" values="0 0 0 0 0 0 0 0 0 0 0 0 0 0 0 0 0 0 0.5 0"/>
<feBlend mode="normal" in2="BackgroundImageFix" result="effect1_dropShadow_5193_4443"/>
<feBlend mode="normal" in="SourceGraphic" in2="effect1_dropShadow_5193_4443" result="shape"/>
</filter>
<clipPath id="clip0_5193_4443">
<rect width="30" height="30" fill="white"/>
</clipPath>
</defs>
</svg>
