<?xml version="1.0" encoding="UTF-8" standalone="no"?> <svg width="64" height="64" viewBox="0 0 64 64" fill="none" xmlns="http://www.w3.org/2000/svg">
<path d="M56 18.82H50.06V15.13C50.06 14.0108 49.6154 12.9374 48.824 12.146C48.0326 11.3546 46.9592 10.91 45.84 10.91H7.22C6.10079 10.91 5.02741 11.3546 4.23601 12.146C3.44461 12.9374 3 14.0108 3 15.13V40.87C3 41.9892 3.44461 43.0626 4.23601 43.854C5.02741 44.6454 6.10079 45.09 7.22 45.09H13.94V48C13.94 49.3261 14.4668 50.5979 15.4045 51.5355C16.3421 52.4732 17.6139 53 18.94 53H56C57.3261 53 58.5979 52.4732 59.5355 51.5355C60.4732 50.5979 61 49.3261 61 48V23.82C61 22.4939 60.4732 21.2222 59.5355 20.2845C58.5979 19.3468 57.3261 18.82 56 18.82V18.82ZM59 23.82V26.69H15.94V23.82C15.94 23.0244 16.2561 22.2613 16.8187 21.6987C17.3813 21.1361 18.1444 20.82 18.94 20.82H56C56.7956 20.82 57.5587 21.1361 58.1213 21.6987C58.6839 22.2613 59 23.0244 59 23.82V23.82ZM59 31H15.94V28.69H59V31ZM5 20.78H15C14.4688 21.4483 14.1238 22.2453 14 23.09H5V20.78ZM7.22 12.91H45.84C46.4288 12.91 46.9934 13.1439 47.4098 13.5602C47.8261 13.9766 48.06 14.5412 48.06 15.13V18.78H5V15.13C5 14.5412 5.23389 13.9766 5.65022 13.5602C6.06655 13.1439 6.63122 12.91 7.22 12.91V12.91ZM7.22 43.09C6.63122 43.09 6.06655 42.8561 5.65022 42.4398C5.23389 42.0235 5 41.4588 5 40.87V25.09H13.94V43.09H7.22ZM56 51H18.94C18.1444 51 17.3813 50.6839 16.8187 50.1213C16.2561 49.5587 15.94 48.7957 15.94 48V33H59V48C59 48.7957 58.6839 49.5587 58.1213 50.1213C57.5587 50.6839 56.7956 51 56 51V51Z" fill="black"/>
<path d="M50.11 41.18C49.5114 41.1815 48.9218 41.3254 48.39 41.6C47.8855 41.3425 47.3292 41.2026 46.763 41.1908C46.1967 41.1791 45.6351 41.2957 45.1204 41.5321C44.6056 41.7684 44.1511 42.1182 43.791 42.5554C43.4308 42.9925 43.1743 43.5055 43.0408 44.0559C42.9072 44.6064 42.9001 45.1799 43.02 45.7335C43.1398 46.287 43.3835 46.8063 43.7327 47.2522C44.0819 47.6981 44.5276 48.0591 45.0363 48.3081C45.5451 48.5572 46.1036 48.6877 46.67 48.69C47.2699 48.6902 47.8607 48.5425 48.39 48.26C48.9192 48.5425 49.51 48.6902 50.11 48.69C51.0723 48.6403 51.9789 48.223 52.6425 47.5243C53.3061 46.8255 53.6761 45.8987 53.6761 44.935C53.6761 43.9713 53.3061 43.0445 52.6425 42.3457C51.9789 41.647 51.0723 41.2297 50.11 41.18V41.18ZM44.91 44.93C44.9145 44.6004 45.011 44.2786 45.1886 44.0009C45.3662 43.7231 45.6178 43.5005 45.9151 43.3581C46.2124 43.2157 46.5436 43.1591 46.8713 43.1948C47.199 43.2305 47.5103 43.357 47.77 43.56V43.56C47.9754 43.7245 48.1413 43.9329 48.2556 44.17C48.3698 44.4071 48.4294 44.6668 48.43 44.93C48.4316 45.1935 48.3729 45.454 48.2586 45.6914C48.1442 45.9288 47.9771 46.137 47.77 46.3V46.3C47.5114 46.507 47.1996 46.6369 46.8705 46.6746C46.5414 46.7124 46.2084 46.6565 45.9096 46.5134C45.6109 46.3703 45.3586 46.1458 45.1817 45.8657C45.0049 45.5856 44.9107 45.2612 44.91 44.93ZM50 46.68C50.2821 46.1398 50.4295 45.5394 50.4295 44.93C50.4295 44.3206 50.2821 43.7202 50 43.18C50.4641 43.18 50.9092 43.3644 51.2374 43.6926C51.5656 44.0207 51.75 44.4659 51.75 44.93C51.75 45.3941 51.5656 45.8392 51.2374 46.1674C50.9092 46.4956 50.4641 46.68 50 46.68Z" fill="black"/>
</svg>
